<svg width="1024" height="1024" viewBox="0 0 1024 1024" fill="none" xmlns="http://www.w3.org/2000/svg">
<rect width="1024" height="1024" rx="24" fill="#0C66D5"/>
<path d="M363.249 956.926C354.3 953.836 348.314 948.64 343.966 940.19C340.811 934.059 340.288 931.698 340.319 923.738C340.34 918.626 341.277 910.853 342.403 906.464C349.622 878.328 373.593 777.299 387.55 716.183C391.019 700.992 395.454 681.657 397.405 673.217C412.88 606.278 417.488 558.463 417.579 463.908C417.634 408.016 417.605 407.353 414.796 399.224C411.542 389.808 404.632 378.56 398.072 372.001C395.588 369.518 376.321 352.704 355.255 334.636C300.507 287.68 268.508 260.105 243.9 238.676C232.083 228.385 211.255 210.347 197.618 198.592C175.055 179.144 172.474 176.513 168.963 169.382C159.384 149.928 167.835 126.764 187.147 119.539C195.646 116.36 208.287 116.32 215.184 119.452C217.96 120.712 227.908 128.572 237.291 136.918C288.939 182.862 377.323 254.928 404.558 273.303C425.097 287.16 444.974 294.162 470.426 296.505C492.059 298.496 559.657 297.145 571.657 294.482C592.792 289.792 608.715 281.97 632.036 264.822C667.924 238.433 751.153 169.405 791.5 132.567C806.144 119.197 813.517 115.372 824.65 115.372C851.451 115.372 868.184 144.366 855.896 169.511C853.258 174.908 848.436 179.617 824.29 200.376C808.619 213.849 777.84 240.484 755.893 259.566C719.016 291.628 677.888 326.984 642.432 357.105C620.554 375.691 613.177 386.724 609.047 407.039C607.196 416.14 607.057 423.505 607.77 474.343C608.21 505.739 608.786 533.084 609.05 535.11C609.314 537.135 609.889 546.527 610.327 555.979C610.765 565.432 611.923 580.882 612.901 590.312C615.859 618.851 618.374 631.632 639.727 726.618C646.907 758.558 663.638 829.429 675.518 878.229C683.988 913.024 684.879 917.826 684.41 926.153C683.498 942.358 675.099 953.28 660.217 957.612C648.291 961.084 632.732 957.323 624.765 949.042C617.498 941.488 614.807 933.293 598.578 869.277C575.601 778.647 559.504 717.274 551.341 689.176C539.428 648.172 535.91 640.101 526.986 633.295C518.66 626.945 505.355 627.533 497.079 634.616C485.364 644.642 482.093 655.75 421.955 889.718C409.83 936.889 406.861 944.403 397.527 951.548C387.79 959.001 375.045 961.001 363.249 956.926ZM493.592 252.766C463.599 246.244 439.644 224.045 429.555 193.423C425.563 181.306 425.088 159.166 428.55 146.589C436.247 118.631 456.213 96.8895 483.095 87.194C513.627 76.1822 547.445 82.9699 570.827 104.803C582.24 115.46 588.18 124.214 593.753 138.589C597.93 149.362 598.038 150.082 598.079 167.438C598.117 183.78 597.84 186.056 594.694 195.216C584.547 224.757 563.244 244.458 533.158 252.124C521.837 255.009 505.152 255.279 493.592 252.766Z" fill="white"/>
</svg>
